<?xml version="1.0" encoding="UTF-8"?>
<svg id="Ebene_1" data-name="Ebene 1" xmlns="http://www.w3.org/2000/svg" viewBox="0 0 313.71 181.68">
  <defs>
    <style>
      .cls-1 {
        fill: #ff7d00;
      }

      .cls-1, .cls-2 { fill: #0a0f4f; /*
        stroke-width: 0px;
      }

      .cls-2 { fill: #0a0f4f; /*
        */
      }
    </style>
  </defs>
  <path class="cls-2" d="m41.91,1.85c1.19,0,1.45.17,1.45,4.51v.68c0,4.17-.34,4.68-1.45,4.68h-14.11v50.07c0,1.02-1.27,1.28-5.78,1.28h-.94c-4.76,0-5.61-.25-5.61-1.28V11.71H1.45c-1.11,0-1.45-.34-1.45-4.68v-.68C0,1.85.26,1.85,1.45,1.85h40.46Z"/>
  <path class="cls-2" d="m162.68.85c4.67,0,5.53.26,6.04,1.45l7.99,19.21c3.65,8.76,5.7,14.54,6.63,17.68,1.02-3.48,3.74-11.05,6.37-17.43l7.91-19.47c.42-.94.76-1.45,5.95-1.45h.68c4.93,0,5.53.26,5.61,1.36l2.3,58.57c0,1.02-.42,1.28-5.53,1.28h-.68c-4.85,0-5.44-.25-5.44-1.19l-.42-21.08c-.17-6.8-.26-14.45,0-19.47-1.27,4.51-4.08,12.75-6.8,19.3l-4.59,11.22c-.43,1.11-.77,1.45-5.19,1.45h-.94c-4.42,0-4.84-.43-5.27-1.45l-4.67-10.96c-2.98-6.89-6.04-14.96-7.31-19.38.34,5.19.42,13.86.17,21l-.6,19.38c0,1.11-.77,1.19-5.36,1.19h-.51c-5.19,0-5.53-.25-5.44-1.28l2.47-58.57c.08-1.19.51-1.36,5.61-1.36h1.02Z"/>
  <path class="cls-2" d="m244.97.85c4.67,0,5.35.26,5.78,1.36l21,58.31c.43,1.11-.25,1.53-5.27,1.53h-1.02c-4.93,0-6.12-.42-6.46-1.45l-4.85-14.11h-19.55l-4.68,14.11c-.34,1.02-1.27,1.45-6.2,1.45h-.85c-5.02,0-5.53-.25-5.1-1.45L238.51,2.21c.34-.94.77-1.36,5.7-1.36h.77Zm-7.23,36.3h13.26l-.94-2.98c-2.97-9.35-4.42-14.03-5.61-18.45-1.19,4.25-3.06,10.46-5.78,18.62l-.94,2.81Z"/>
  <path class="cls-2" d="m310.39,10.97c-1.53,3.14-2.04,3.31-3.06,2.63-3.74-2.29-6.63-3.57-10.54-3.57-4.84,0-7.99,2.89-7.99,6.88,0,4.34,4.67,6.46,9.52,8.93,7.31,3.74,15.39,7.91,15.39,18.62s-6.97,18.45-20.66,18.45c-7.4,0-14.2-2.46-18.28-5.78-1.1-.94-1.19-1.87.25-4.68l1.02-2.04c1.45-2.72,2.21-3.4,3.32-2.63,4.08,2.89,8.5,4.85,12.92,4.85,5.53,0,9.18-2.55,9.18-7.22,0-5.27-4.85-7.31-9.95-9.86-7.14-3.49-14.96-7.57-14.96-17.6,0-11.39,9.01-17.94,19.64-17.94,5.7,0,11.31,1.62,15.39,4.51,1.27.94,1.11,1.79-.34,4.76l-.85,1.7Z"/>
  <path class="cls-2" d="m22.03,74.92c4.51,0,5.78.34,5.78,1.27v23.72l2.3-2.46c7.91-8.42,12.92-15.3,16.92-21.34.59-.94,1.19-1.19,5.61-1.19h1.02c4.93,0,5.61.34,5.1,1.36-2.89,6.04-8.5,14.11-18.62,24.65l19.72,33.66c.6,1.11-.08,1.53-4.42,1.53h-2.47c-5.44,0-5.78-.17-6.38-1.19l-14.62-25.5-4.17,4.34v21.08c0,.85-1.27,1.27-5.78,1.27h-.94c-4.76,0-5.61-.25-5.61-1.27v-58.66c0-.93.85-1.27,5.61-1.27h.94Z"/>
  <path class="cls-2" d="m82.36,74.91c9.61-.09,15.98,1.19,20.4,5.78,2.72,2.81,4.25,6.97,4.25,12.33,0,7.99-3.74,13.77-10.54,17.34l1.95,3.57c5.1,9.27,9.18,15.39,13.01,20.49.76,1.02.34,1.7-3.32,1.7h-4.67c-2.89,0-4.08-.09-5.27-1.27-2.13-2.3-5.19-7.23-10.46-17.01l-2.81-5.19h-5.44v22.19c0,1.02-1.28,1.27-5.78,1.27h-.93c-4.76,0-5.61-.26-5.61-1.27v-58.66c0-1.11.51-1.28,3.83-1.28h11.39Zm-2.89,28.05h4.16c4,0,6.89-1.02,8.58-2.8,1.62-1.62,2.38-3.99,2.38-6.97,0-2.63-.68-4.59-2.04-5.95-1.79-1.79-4.59-2.47-9.01-2.47h-4.08v18.19Z"/>
  <path class="cls-2" d="m153.79,74.92c1.19,0,1.45.17,1.45,4.5v.68c0,4.17-.34,4.68-1.45,4.68h-23.37v15.47h19.81c1.19,0,1.45.17,1.45,4.51v.68c0,4.16-.34,4.67-1.45,4.67h-19.81v16.15h23.72c1.19,0,1.44.17,1.44,4.51v.68c0,4.16-.34,4.67-1.44,4.67h-32.22c-3.32,0-3.83-.17-3.83-1.27v-58.66c0-1.1.51-1.27,3.83-1.27h31.87Z"/>
  <path class="cls-2" d="m169.83,73.92c4.76,0,5.36.42,5.95,1.36l15.3,23.29c6.37,9.77,8.16,12.58,10.03,17.17-.34-4.08-.51-13.68-.51-19.63v-20.91c0-.93.76-1.27,5.44-1.27h.59c4.42,0,5.53.34,5.53,1.27v58.66c0,1.02-.42,1.27-4.93,1.27h-.51c-4.08,0-5.1-.25-5.78-1.36l-15.3-23.29c-6.54-9.95-8.84-13.77-10.12-17.26.42,4,.6,13.86.6,19.72v20.91c0,1.02-1.02,1.27-5.44,1.27h-.51c-4.68,0-5.61-.17-5.61-1.27v-58.66c0-1.1.25-1.27,4.84-1.27h.43Z"/>
  <path class="cls-2" d="m228.52,73.92c4.76,0,5.35.42,5.95,1.36l15.3,23.29c6.37,9.77,8.16,12.58,10.03,17.17-.34-4.08-.51-13.68-.51-19.63v-20.91c0-.93.76-1.27,5.44-1.27h.59c4.42,0,5.53.34,5.53,1.27v58.66c0,1.02-.43,1.27-4.93,1.27h-.51c-4.08,0-5.1-.25-5.78-1.36l-15.3-23.29c-6.54-9.95-8.84-13.77-10.12-17.26.43,4,.6,13.86.6,19.72v20.91c0,1.02-1.02,1.27-5.44,1.27h-.51c-4.68,0-5.61-.17-5.61-1.27v-58.66c0-1.1.25-1.27,4.84-1.27h.43Z"/>
  <path class="cls-2" d="m292.27,78.3c0,4.84-3.48,7.99-7.86,7.99s-7.86-3.15-7.86-7.99,3.48-7.99,7.86-7.99,7.86,3.15,7.86,7.99Zm-13.74,0c0,3.76,2.61,6.27,5.9,6.27s5.85-2.51,5.85-6.27-2.61-6.27-5.9-6.27-5.86,2.51-5.86,6.27Zm5.32-4.39c1.77,0,3.41.45,3.41,2.59,0,1.15-.56,1.99-1.54,2.48l.28.52c.71,1.34,1.3,2.2,1.86,2.94.11.15.04.24-.47.24h-.71c-.43,0-.61,0-.76-.17-.3-.35-.76-1.04-1.51-2.46l-.41-.73h-.69v3.2c0,.15-.17.17-.82.17h-.17c-.67,0-.8-.02-.8-.17v-8.43c0-.15.06-.17.54-.17h1.79Zm-.54,3.98h.58c.56,0,.97-.15,1.21-.39.24-.24.35-.54.35-.95,0-.39-.11-.65-.3-.84-.24-.24-.67-.32-1.3-.32h-.54v2.51Z"/>
  <path class="cls-2" d="m55.17,1.85c4.51,0,5.78.26,5.78,1.28v24.06h21.51V3.12c0-1.02.85-1.28,5.61-1.28h.93c4.5,0,5.78.26,5.78,1.28v58.65c0,1.02-1.28,1.28-5.78,1.28h-.93c-4.76,0-5.61-.25-5.61-1.28v-24.74h-21.51v24.74c0,1.02-1.28,1.28-5.78,1.28h-.93c-4.76,0-5.61-.25-5.61-1.28V3.12c0-1.02.85-1.28,5.61-1.28h.93Z"/>
  <path class="cls-1" d="m145.51,2.99c1.12,0,1.57.67,1.57,5.6v.67c0,4.93-.45,5.6-1.57,5.6h-40.58c-1.12,0-1.57-.67-1.57-5.6v-.67c0-4.93.45-5.6,1.57-5.6h40.58Z"/>
  <path class="cls-1" d="m145.51,50.05c1.12,0,1.57.67,1.57,5.6v.67c0,4.93-.45,5.6-1.57,5.6h-40.58c-1.12,0-1.57-.67-1.57-5.6v-.67c0-4.93.45-5.6,1.57-5.6h40.58Z"/>
  <g>
    <path class="cls-2" d="m22.66,154.34c.15,0,.23.26.23.79v.34c0,.55-.08.82-.23.82h-2.1v16.77h2.1c.15,0,.23.27.23.82v.34c0,.53-.08.79-.23.79h-6.92c-.1,0-.16-.05-.19-.14-.03-.09-.04-.32-.04-.68v-.31c0-.36.01-.58.04-.68.03-.09.09-.14.19-.14h2.1v-16.77h-2.1c-.1,0-.16-.05-.19-.14-.03-.09-.04-.32-.04-.68v-.31c0-.36.01-.59.04-.68.03-.09.09-.14.19-.14h6.92Z"/>
    <path class="cls-2" d="m38.71,154.34c.17,0,.26.32.26.95v.35c0,.65-.09.98-.26.98h-5.34v18.1c0,.21-.41.32-1.24.32h-.32c-.79,0-1.18-.1-1.18-.32v-18.1h-5.31c-.17,0-.26-.33-.26-.98v-.35c0-.63.09-.95.26-.95h13.38Z"/>
    <path class="cls-2" d="m40.77,161.67c-.08-.08-.14-.19-.2-.33-.06-.14,0-.29.14-.45.4-.4.76-.85,1.08-1.34s.47-.98.47-1.48c0-.29-.06-.51-.19-.68-.12-.16-.27-.32-.43-.47s-.31-.33-.43-.55c-.12-.21-.19-.51-.19-.89,0-.5.16-.89.49-1.18.33-.29.73-.43,1.21-.43.65,0,1.16.21,1.52.63.36.42.55.94.55,1.55,0,1.11-.27,2.2-.8,3.26-.54,1.06-1.24,1.96-2.13,2.69-.12.1-.25.15-.4.16-.15,0-.3-.06-.43-.22l-.26-.29Z"/>
    <path class="cls-2" d="m57.24,162.46c-.13.19-.24.34-.33.43-.09.1-.16.16-.22.2s-.11.05-.16.03c-.05-.02-.1-.05-.16-.09-.54-.38-1.07-.69-1.59-.92-.53-.23-1.11-.35-1.74-.35-.29,0-.6.03-.93.1s-.65.18-.93.33-.53.36-.72.62c-.19.26-.29.59-.29.99s.09.7.27.96c.18.26.42.47.7.65.29.17.61.31.96.42.35.11.7.2,1.05.27.59.15,1.18.33,1.75.53.58.2,1.09.47,1.55.8.46.34.83.75,1.12,1.25.29.5.43,1.12.43,1.87s-.15,1.45-.46,2.04c-.31.59-.72,1.09-1.24,1.49s-1.13.7-1.82.91c-.7.2-1.44.3-2.23.3-.92,0-1.8-.15-2.63-.44-.83-.29-1.53-.63-2.08-1.02-.15-.1-.21-.21-.17-.35.04-.14.13-.37.29-.69l.14-.32c.19-.4.34-.63.43-.69.1-.06.24-.03.43.09.56.33,1.16.6,1.81.82.65.22,1.29.33,1.93.33.33,0,.68-.04,1.05-.13.37-.09.72-.22,1.03-.4.32-.18.57-.42.78-.72s.3-.65.3-1.08c0-.38-.11-.71-.32-.97-.21-.27-.47-.49-.79-.67s-.67-.33-1.06-.44c-.39-.12-.77-.21-1.14-.29-.77-.17-1.43-.37-2-.59s-1.04-.51-1.42-.88c-.36-.32-.65-.73-.85-1.22s-.3-1.01-.3-1.56c0-.71.14-1.34.43-1.89.29-.55.67-1.03,1.15-1.42.48-.39,1.04-.69,1.68-.9s1.33-.32,2.05-.32c.92,0,1.77.14,2.56.43.78.29,1.45.67,1.98,1.15.11.1.18.22.19.37s-.09.37-.3.66l-.2.29Z"/>
    <path class="cls-2" d="m69.9,159.85c.52,0,.85.02.99.07.14.05.22.14.22.27l.03,1.29h-.03c.44-.56,1.05-1.01,1.82-1.38.78-.36,1.56-.55,2.34-.55,1.91,0,3.41.66,4.5,2,1.08,1.33,1.62,3.18,1.62,5.56,0,1.07-.14,2.1-.43,3.09-.29.99-.72,1.85-1.29,2.6-.57.75-1.3,1.35-2.18,1.8s-1.91.67-3.1.67c-.56,0-1.13-.09-1.71-.26-.58-.17-1.06-.38-1.42-.63v6.92c0,.15-.08.25-.24.3s-.49.07-.99.07h-.17c-.46,0-.77-.02-.93-.07-.16-.05-.24-.15-.24-.3v-16.43c0-.48,0-.96-.01-1.45,0-.49-.01-.94-.01-1.35s0-.79-.01-1.12c0-.34-.01-.59-.01-.76,0-.11.06-.2.17-.26s.45-.09,1.01-.09h.11Zm1.35,12.01c.36.31.81.56,1.34.78.53.21,1.08.32,1.65.32,1.36,0,2.44-.52,3.25-1.57.81-1.04,1.21-2.44,1.21-4.18s-.36-3.06-1.08-3.96-1.64-1.35-2.77-1.35c-.57,0-1.15.12-1.74.35-.58.23-1.02.54-1.31.92-.13.17-.23.35-.3.55-.07.19-.12.45-.16.76s-.06.71-.07,1.18c-.01.47-.01,1.06-.01,1.77v4.45Z"/>
    <path class="cls-2" d="m86.68,168.35c.04.8.18,1.5.42,2.1.24.59.58,1.08,1.02,1.46.77.69,1.9,1.03,3.39,1.03,1.19,0,2.45-.31,3.79-.92.13-.06.25-.07.35-.04.1.03.22.23.37.59l.14.34c.15.38.23.64.23.76s-.06.22-.17.3c-1.49.88-3.23,1.32-5.2,1.32-2.34,0-4.09-.68-5.27-2.03-1.18-1.35-1.77-3.18-1.77-5.5,0-1.21.16-2.31.47-3.32.32-1.01.78-1.87,1.38-2.6.6-.73,1.33-1.29,2.17-1.69s1.8-.6,2.87-.6c1.28,0,2.36.29,3.23.86.87.58,1.55,1.34,2.03,2.3.33.67.56,1.39.72,2.15.15.77.23,1.58.23,2.44,0,.44-.02.72-.06.85-.04.13-.12.19-.23.19h-10.11Zm7.75-2.13c0-.54-.07-1.06-.22-1.58s-.36-.98-.65-1.38c-.29-.4-.66-.73-1.11-.98s-.97-.37-1.57-.37c-1.05,0-1.95.34-2.7,1.03-.75.69-1.23,1.78-1.44,3.27h7.67Z"/>
    <path class="cls-2" d="m106.75,159.56c1.8,0,3.23.48,4.31,1.44.73.63,1.29,1.46,1.68,2.5.39,1.03.59,2.23.59,3.59s-.17,2.55-.52,3.58c-.35,1.02-.83,1.88-1.45,2.57-.62.69-1.37,1.21-2.25,1.55-.88.35-1.86.52-2.93.52-1.8,0-3.24-.48-4.31-1.44-.73-.63-1.29-1.47-1.68-2.5-.39-1.03-.59-2.23-.59-3.59s.17-2.55.52-3.58c.35-1.02.83-1.88,1.45-2.57.62-.69,1.37-1.21,2.25-1.55.88-.35,1.86-.52,2.93-.52Zm-.12,2.27c-.58,0-1.13.11-1.65.32-.53.21-.99.55-1.38,1.01-.39.46-.71,1.05-.95,1.78-.24.72-.36,1.6-.36,2.64,0,.65.06,1.3.19,1.95.12.64.33,1.23.63,1.75.3.52.7.94,1.22,1.27s1.17.49,1.95.49c.58,0,1.12-.1,1.65-.32.53-.21.99-.55,1.38-1.01s.71-1.05.95-1.78.36-1.6.36-2.64c0-.65-.06-1.3-.19-1.95-.12-.64-.33-1.23-.63-1.75-.3-.52-.7-.94-1.22-1.27s-1.17-.49-1.95-.49Z"/>
    <path class="cls-2" d="m118.07,159.85c.52,0,.85.02.99.07.14.05.22.14.22.27l.03,1.29h-.03c.44-.56,1.05-1.01,1.82-1.38.78-.36,1.56-.55,2.34-.55,1.91,0,3.41.66,4.5,2,1.08,1.33,1.62,3.18,1.62,5.56,0,1.07-.14,2.1-.43,3.09-.29.99-.72,1.85-1.29,2.6-.57.75-1.3,1.35-2.18,1.8s-1.91.67-3.1.67c-.56,0-1.13-.09-1.71-.26-.58-.17-1.06-.38-1.42-.63v6.92c0,.15-.08.25-.24.3s-.49.07-.99.07h-.17c-.46,0-.77-.02-.93-.07-.16-.05-.24-.15-.24-.3v-16.43c0-.48,0-.96-.01-1.45,0-.49-.01-.94-.01-1.35s0-.79-.01-1.12c0-.34-.01-.59-.01-.76,0-.11.06-.2.17-.26s.45-.09,1.01-.09h.11Zm1.35,12.01c.36.31.81.56,1.34.78.53.21,1.08.32,1.65.32,1.36,0,2.44-.52,3.25-1.57.81-1.04,1.21-2.44,1.21-4.18s-.36-3.06-1.08-3.96c-.72-.9-1.64-1.35-2.77-1.35-.57,0-1.15.12-1.74.35-.58.23-1.02.54-1.31.92-.13.17-.23.35-.3.55-.07.19-.12.45-.16.76s-.06.71-.07,1.18c-.01.47-.01,1.06-.01,1.77v4.45Z"/>
    <path class="cls-2" d="m134.15,153.19c.46,0,.76.02.9.07.14.05.23.15.27.3.04.21.07.57.09,1.08.02.51.04,1.14.06,1.88.02.75.03,1.59.03,2.54v12.54c0,.54.06.91.19,1.12.12.21.43.32.91.32h.29c.08,0,.12.05.14.14.02.1.03.31.03.63v.09c0,.38,0,.62-.01.72,0,.1-.06.16-.16.2-.42.15-.87.23-1.35.23-.4,0-.79-.07-1.16-.2-.37-.13-.69-.39-.96-.78-.19-.27-.32-.65-.39-1.13s-.1-1.12-.1-1.88v-11.96c0-.81-.01-1.58-.03-2.31-.02-.73-.04-1.37-.06-1.94-.02-.56-.05-.99-.09-1.28-.02-.15.06-.25.23-.3.17-.05.51-.07,1.01-.07h.17Z"/>
    <path class="cls-2" d="m142.19,168.35c.04.8.18,1.5.42,2.1.24.59.58,1.08,1.02,1.46.77.69,1.9,1.03,3.39,1.03,1.19,0,2.45-.31,3.79-.92.13-.06.25-.07.35-.04.1.03.22.23.37.59l.14.34c.15.38.23.64.23.76s-.06.22-.17.3c-1.49.88-3.23,1.32-5.2,1.32-2.34,0-4.09-.68-5.27-2.03-1.18-1.35-1.77-3.18-1.77-5.5,0-1.21.16-2.31.47-3.32.32-1.01.78-1.87,1.38-2.6.6-.73,1.33-1.29,2.17-1.69s1.8-.6,2.87-.6c1.28,0,2.36.29,3.23.86.87.58,1.55,1.34,2.03,2.3.33.67.56,1.39.72,2.15s.23,1.58.23,2.44c0,.44-.02.72-.06.85-.04.13-.12.19-.23.19h-10.11Zm7.75-2.13c0-.54-.07-1.06-.22-1.58s-.36-.98-.65-1.38c-.29-.4-.66-.73-1.11-.98s-.97-.37-1.57-.37c-1.05,0-1.95.34-2.7,1.03-.75.69-1.23,1.78-1.44,3.27h7.67Z"/>
    <path class="cls-2" d="m164.54,153.19c.57,0,.91.03,1.02.1.1.07.16.15.16.24v7.73c.42-.5,1.02-.91,1.81-1.22.79-.32,1.61-.47,2.47-.47,1.15,0,2.14.28,2.99.85s1.49,1.34,1.95,2.31c.27.59.48,1.25.63,1.98.15.73.23,1.5.23,2.33,0,1.26-.15,2.41-.46,3.43-.31,1.02-.77,1.9-1.39,2.61-.62.72-1.39,1.27-2.31,1.65-.92.38-1.98.57-3.19.57-1.11,0-2.09-.09-2.94-.27-.85-.18-1.61-.43-2.28-.73-.04-.02-.06-.06-.07-.12-.01-.06-.01-.12-.01-.17v-20.48c0-.11.06-.2.19-.26s.47-.09,1.05-.09h.17Zm1.18,19.36c.36.15.77.27,1.21.36.44.09.87.13,1.29.13.82,0,1.54-.14,2.15-.43.61-.29,1.12-.68,1.52-1.19.4-.51.7-1.12.91-1.83s.3-1.5.3-2.36c0-3.48-1.23-5.21-3.68-5.21-.54,0-1.06.1-1.58.29-.52.19-.94.45-1.26.77-.17.17-.33.41-.47.7-.14.3-.24.75-.3,1.36-.04.4-.06.93-.07,1.6,0,.67-.01,1.42-.01,2.26v3.55Z"/>
    <path class="cls-2" d="m180.45,159.85c.56,0,.89.03,1.02.09.12.06.19.14.19.26v7.53c0,1.13.04,2.02.12,2.67.08.65.28,1.17.6,1.55.54.65,1.39.98,2.56.98.55,0,1.13-.09,1.72-.27.59-.18,1.06-.44,1.41-.76.15-.13.29-.3.4-.5s.21-.47.29-.82c.08-.34.13-.78.17-1.31.04-.53.06-1.18.06-1.97v-7.09c0-.1.07-.18.2-.24.13-.07.45-.1.95-.1h.26c.5,0,.82.03.96.09.14.06.22.14.22.26v9.79c0,.5,0,.99.01,1.47s.01.92.01,1.34,0,.79.01,1.12c0,.34.01.59.01.76,0,.12-.06.2-.17.26-.12.06-.45.09-1.01.09h-.12c-.5,0-.82-.03-.96-.09-.14-.06-.22-.14-.22-.26l-.06-1.24h-.03c-.54.59-1.2,1.05-1.98,1.38-.79.33-1.71.49-2.79.49-1.59,0-2.86-.51-3.82-1.52-.5-.54-.86-1.19-1.08-1.97-.22-.78-.33-1.75-.33-2.92v-8.7c0-.06,0-.1.03-.14.02-.04.07-.07.14-.1.08-.03.19-.05.35-.07.15-.02.36-.03.63-.03h.23Z"/>
    <path class="cls-2" d="m204.89,162.46c-.13.19-.24.34-.33.43-.09.1-.16.16-.22.2s-.11.05-.16.03c-.05-.02-.1-.05-.16-.09-.54-.38-1.07-.69-1.59-.92-.53-.23-1.11-.35-1.74-.35-.29,0-.6.03-.93.1s-.65.18-.93.33-.53.36-.72.62c-.19.26-.29.59-.29.99s.09.7.27.96c.18.26.42.47.7.65.29.17.61.31.96.42.35.11.7.2,1.05.27.59.15,1.18.33,1.75.53.58.2,1.09.47,1.55.8.46.34.83.75,1.12,1.25.29.5.43,1.12.43,1.87s-.15,1.45-.46,2.04c-.31.59-.72,1.09-1.24,1.49s-1.13.7-1.82.91c-.7.2-1.44.3-2.23.3-.92,0-1.8-.15-2.63-.44-.83-.29-1.53-.63-2.08-1.02-.15-.1-.21-.21-.17-.35.04-.14.13-.37.29-.69l.14-.32c.19-.4.34-.63.43-.69.1-.06.24-.03.43.09.56.33,1.16.6,1.81.82.65.22,1.29.33,1.93.33.33,0,.68-.04,1.05-.13.37-.09.72-.22,1.03-.4.32-.18.57-.42.78-.72s.3-.65.3-1.08c0-.38-.11-.71-.32-.97-.21-.27-.47-.49-.79-.67s-.67-.33-1.06-.44c-.39-.12-.77-.21-1.14-.29-.77-.17-1.43-.37-2-.59s-1.04-.51-1.42-.88c-.36-.32-.65-.73-.85-1.22-.2-.49-.3-1.01-.3-1.56,0-.71.14-1.34.43-1.89.29-.55.67-1.03,1.15-1.42.48-.39,1.04-.69,1.68-.9s1.33-.32,2.05-.32c.92,0,1.77.14,2.56.43.78.29,1.45.67,1.98,1.15.11.1.18.22.19.37s-.09.37-.3.66l-.2.29Z"/>
    <path class="cls-2" d="m208.57,155.2c0-.5.18-.92.53-1.28s.78-.53,1.28-.53.92.18,1.28.53.53.78.53,1.28-.18.92-.53,1.28c-.35.35-.78.53-1.28.53s-.92-.18-1.28-.53c-.35-.35-.53-.78-.53-1.28Zm1.92,4.65c.58,0,.91.03,1.02.1.1.07.16.15.16.24v14.48c0,.1-.05.18-.16.24-.11.07-.45.1-1.02.1h-.17c-.57,0-.92-.03-1.05-.09-.13-.06-.19-.14-.19-.26v-14.48c0-.11.06-.2.19-.26.12-.06.47-.09,1.05-.09h.17Z"/>
    <path class="cls-2" d="m217.33,159.85c.52,0,.84.02.98.07s.2.14.2.27l.03,1.29h.03c.25-.29.55-.55.9-.79s.74-.45,1.15-.62c.41-.17.84-.3,1.29-.39.45-.09.89-.13,1.34-.13.8,0,1.54.13,2.21.39.67.26,1.24.64,1.72,1.14.52.54.89,1.19,1.12,1.97.23.78.35,1.75.35,2.92v8.7c0,.1-.05.18-.16.24-.11.07-.45.1-1.02.1h-.17c-.58,0-.92-.03-1.05-.09-.12-.06-.19-.14-.19-.26v-7.5c0-1.17-.04-2.06-.13-2.69-.09-.62-.3-1.13-.65-1.54-.52-.63-1.43-.95-2.73-.95-.54,0-1.09.09-1.67.27-.57.18-1.03.44-1.38.76-.17.15-.33.38-.47.68-.14.3-.24.75-.3,1.36-.04.4-.06.95-.07,1.64s-.01,1.46-.01,2.3v5.66c0,.1-.05.18-.16.24-.11.07-.45.1-1.02.1h-.17c-.57,0-.92-.03-1.05-.09-.13-.06-.19-.14-.19-.26v-9.79c0-.48,0-.96-.01-1.45-.01-.49-.01-.94-.01-1.35s0-.79-.01-1.12c0-.34-.01-.59-.01-.76,0-.11.06-.2.17-.26s.45-.09,1.01-.09h.14Z"/>
    <path class="cls-2" d="m234.62,168.35c.04.8.18,1.5.42,2.1.24.59.58,1.08,1.02,1.46.77.69,1.9,1.03,3.39,1.03,1.19,0,2.45-.31,3.79-.92.13-.06.25-.07.35-.04.1.03.22.23.37.59l.14.34c.15.38.23.64.23.76s-.06.22-.17.3c-1.49.88-3.23,1.32-5.2,1.32-2.34,0-4.09-.68-5.27-2.03-1.18-1.35-1.77-3.18-1.77-5.5,0-1.21.16-2.31.47-3.32.32-1.01.78-1.87,1.38-2.6.6-.73,1.33-1.29,2.17-1.69s1.8-.6,2.87-.6c1.28,0,2.36.29,3.23.86.87.58,1.55,1.34,2.03,2.3.33.67.56,1.39.72,2.15s.23,1.58.23,2.44c0,.44-.02.72-.06.85-.04.13-.12.19-.23.19h-10.11Zm7.75-2.13c0-.54-.07-1.06-.22-1.58-.14-.52-.36-.98-.65-1.38-.29-.4-.66-.73-1.11-.98s-.97-.37-1.57-.37c-1.05,0-1.95.34-2.7,1.03-.75.69-1.23,1.78-1.44,3.27h7.67Z"/>
    <path class="cls-2" d="m257.37,162.46c-.13.19-.24.34-.33.43-.09.1-.16.16-.22.2s-.11.05-.16.03c-.05-.02-.1-.05-.16-.09-.54-.38-1.07-.69-1.59-.92-.53-.23-1.11-.35-1.74-.35-.29,0-.6.03-.93.1s-.65.18-.93.33-.53.36-.72.62c-.19.26-.29.59-.29.99s.09.7.27.96c.18.26.42.47.7.65.29.17.61.31.96.42.35.11.7.2,1.05.27.59.15,1.18.33,1.75.53.58.2,1.09.47,1.55.8.46.34.83.75,1.12,1.25.29.5.43,1.12.43,1.87s-.15,1.45-.46,2.04c-.31.59-.72,1.09-1.24,1.49s-1.13.7-1.82.91c-.7.2-1.44.3-2.23.3-.92,0-1.8-.15-2.63-.44-.83-.29-1.53-.63-2.08-1.02-.15-.1-.21-.21-.17-.35.04-.14.13-.37.29-.69l.14-.32c.19-.4.34-.63.43-.69.1-.06.24-.03.43.09.56.33,1.16.6,1.81.82.65.22,1.29.33,1.93.33.33,0,.68-.04,1.05-.13.37-.09.72-.22,1.03-.4.32-.18.57-.42.78-.72s.3-.65.3-1.08c0-.38-.11-.71-.32-.97-.21-.27-.47-.49-.79-.67s-.67-.33-1.06-.44c-.39-.12-.77-.21-1.14-.29-.77-.17-1.43-.37-2-.59s-1.04-.51-1.42-.88c-.36-.32-.65-.73-.85-1.22s-.3-1.01-.3-1.56c0-.71.14-1.34.43-1.89.29-.55.67-1.03,1.15-1.42.48-.39,1.04-.69,1.68-.9s1.33-.32,2.05-.32c.92,0,1.77.14,2.56.43.78.29,1.45.67,1.98,1.15.11.1.18.22.19.37s-.09.37-.3.66l-.2.29Z"/>
    <path class="cls-2" d="m270.52,162.46c-.13.19-.24.34-.33.43-.09.1-.16.16-.22.2s-.11.05-.16.03c-.05-.02-.1-.05-.16-.09-.54-.38-1.07-.69-1.59-.92-.53-.23-1.11-.35-1.74-.35-.29,0-.6.03-.93.1s-.65.18-.93.33-.53.36-.72.62c-.19.26-.29.59-.29.99s.09.7.27.96c.18.26.42.47.7.65.29.17.61.31.96.42.35.11.7.2,1.05.27.59.15,1.18.33,1.75.53.58.2,1.09.47,1.55.8.46.34.83.75,1.12,1.25.29.5.43,1.12.43,1.87s-.15,1.45-.46,2.04c-.31.59-.72,1.09-1.24,1.49s-1.13.7-1.82.91c-.7.2-1.44.3-2.23.3-.92,0-1.8-.15-2.63-.44-.83-.29-1.53-.63-2.08-1.02-.15-.1-.21-.21-.17-.35.04-.14.13-.37.29-.69l.14-.32c.19-.4.34-.63.43-.69.1-.06.24-.03.43.09.56.33,1.16.6,1.81.82.65.22,1.29.33,1.93.33.33,0,.68-.04,1.05-.13.37-.09.72-.22,1.03-.4.32-.18.57-.42.78-.72s.3-.65.3-1.08c0-.38-.11-.71-.32-.97-.21-.27-.47-.49-.79-.67s-.67-.33-1.06-.44c-.39-.12-.77-.21-1.14-.29-.77-.17-1.43-.37-2-.59s-1.04-.51-1.42-.88c-.36-.32-.65-.73-.85-1.22s-.3-1.01-.3-1.56c0-.71.14-1.34.43-1.89.29-.55.67-1.03,1.15-1.42.48-.39,1.04-.69,1.68-.9s1.33-.32,2.05-.32c.92,0,1.77.14,2.56.43.78.29,1.45.67,1.98,1.15.11.1.18.22.19.37s-.09.37-.3.66l-.2.29Z"/>
  </g>
</svg>
